<svg width="74" height="64" viewBox="0 0 74 64" fill="none" xmlns="http://www.w3.org/2000/svg">
<path d="M45.8 13.3521H48.12C48.28 13.3521 48.68 13.1952 48.68 12.8028C48.68 12.6459 48.52 12.2535 48.12 12.2535H45.8C45.64 12.2535 45.24 12.4105 45.24 12.8028C45.48 13.1167 45.64 13.3521 45.8 13.3521Z" fill="#E53045"/>
<path d="M45.8 14.9208H48.12C48.28 14.9208 48.68 14.7638 48.68 14.3715C48.68 14.2146 48.52 13.8222 48.12 13.8222H45.8C45.64 13.8222 45.24 13.9791 45.24 14.3715C45.48 14.5284 45.64 14.9208 45.8 14.9208Z" fill="#E53045"/>
<path d="M45.8 16.2546H48.12C48.28 16.2546 48.68 16.0976 48.68 15.7053C48.68 15.5483 48.52 15.156 48.12 15.156H45.8C45.64 15.156 45.24 15.3129 45.24 15.7053C45.48 16.0976 45.64 16.2546 45.8 16.2546Z" fill="#E53045"/>
<path d="M42.12 21.4344H52.36V22.4545C52.36 22.6114 52.52 22.7684 52.68 22.7684H52.84C53 22.7684 53 22.7684 53.16 22.6114L53.72 22.0622L54.28 22.6114C54.44 22.7684 54.6 22.7684 54.84 22.7684C55.08 22.7684 55.16 22.6114 55.16 22.4545V21.4344H57.8C57.96 21.4344 58.36 21.2775 58.36 20.8851V11.9397C58.36 11.7827 58.2 11.3904 57.8 11.3904H56.76V9.66409C56.76 9.50715 56.6 9.11481 56.2 9.11481H51.08C50.52 9.11481 49.88 9.42868 49.48 9.82103C49.16 9.27175 48.6 9.11481 47.88 9.11481H43.32C43.16 9.11481 42.76 9.27175 42.76 9.66409V11.3904H41.8C41.64 11.3904 41.24 11.5473 41.24 11.9397V20.9636C41.56 21.2775 41.8 21.4344 42.12 21.4344ZM50.28 20.5713C50.44 20.2574 50.84 19.865 51.32 19.865H52.36V20.5713H50.28ZM53.8 21.4344C53.8 21.4344 53.64 21.2775 53.48 21.2775C53.32 21.2775 53.32 21.2775 53.16 21.4344V19.865H53.8V21.4344ZM56.76 12.489V20.6497H54.68V19.9435H55.72C55.88 19.9435 56.28 19.7866 56.28 19.3942V12.332H56.84V12.489H56.76ZM44.04 10.2134H48.12C48.68 10.2134 49.16 10.7627 49.16 11.2335C49.16 11.3904 49.32 11.7827 49.72 11.7827C50.04 11.7827 50.28 11.6258 50.28 11.2335C50.28 10.6842 50.84 10.2134 51.32 10.2134H55.4V19.0803H51.16C50.6 19.0803 49.96 19.3942 49.56 19.7866C49.24 19.2373 48.68 19.0803 47.96 19.0803H44.04V10.2134ZM42.44 12.489H43.16V19.5512C43.16 19.7081 43.32 20.1004 43.72 20.1004H48.28C48.6 20.1004 49.16 20.2574 49.32 20.8067H42.76V12.489H42.44Z" fill="#E53045"/>
<path d="M31.7199 42.9348C31.5599 42.621 31.3999 42.621 30.9999 42.7779L29.3999 43.6411C28.8399 43.6411 28.3599 43.6411 28.3599 43.6411C28.3599 43.6411 28.0399 43.4841 27.7999 43.4841C27.0799 43.1702 26.7599 42.9348 26.3599 42.9348C25.9599 42.9348 25.6399 43.0918 25.3199 43.2487C23.8799 43.5626 22.5199 43.4057 21.9599 43.4057C21.7999 43.2487 20.1999 42.3856 20.1999 42.3856C20.0399 42.3856 20.0399 42.3856 19.8799 42.3856C19.7199 42.3856 19.7199 42.5425 19.5599 42.6994L17.6399 47.8784C17.6399 48.0353 17.6399 48.0353 17.6399 48.1922C17.6399 48.3492 17.7999 48.3492 17.7999 48.3492C17.7999 48.3492 19.5599 49.0554 19.7199 49.0554C19.8799 49.0554 19.8799 49.0554 20.0399 48.8985L20.3599 49.0554C20.3599 49.2123 20.3599 49.2123 20.3599 49.3693C20.3599 49.6832 20.5199 49.9186 20.6799 50.0755C20.8399 50.2324 20.9999 50.3894 21.3999 50.3894C21.3999 50.5463 21.5599 50.7033 21.7199 50.9387C21.8799 51.0956 22.4399 51.2525 22.7599 51.2525C22.9199 51.5664 23.6399 51.9588 23.9599 51.8018C24.1199 52.1157 24.8399 52.508 25.3999 52.1157L25.5599 52.2726C25.7199 52.4296 26.1199 52.5865 26.4399 52.5865C26.7599 52.5865 26.9999 52.4296 27.3199 52.2726C27.4799 52.1157 27.4799 52.1157 27.4799 51.9588C27.6399 51.9588 27.6399 51.9588 27.7999 51.9588C28.1199 51.9588 28.3599 51.8018 28.6799 51.6449C28.6799 51.6449 28.8399 51.4879 28.8399 51.331C28.9999 51.331 29.1599 51.331 29.1599 51.331C29.4799 51.331 29.7199 51.1741 30.0399 51.0171C30.1999 50.8602 30.1999 50.8602 30.1999 50.7033H30.3599C30.6799 50.7033 30.9199 50.5463 31.2399 50.3894C31.5599 50.0755 31.5599 49.3693 31.2399 48.82C31.2399 48.82 31.2399 48.82 31.3999 48.82C31.3999 48.9769 31.5599 48.9769 31.7199 48.9769C31.8799 48.9769 33.4799 48.4277 33.6399 48.2707C33.9599 48.1138 33.9599 47.9568 33.7999 47.7214L31.7199 42.9348ZM20.0399 43.2487C20.0399 43.2487 20.9199 43.798 21.0799 43.9549C20.9199 44.6612 20.3599 46.5444 19.4799 47.9568C19.1599 47.7999 18.7599 47.7999 18.4399 47.643L20.0399 43.2487ZM24.6799 51.2525C24.6799 51.2525 24.5199 51.0956 24.6799 51.0956C24.6799 50.9387 24.6799 50.7817 24.5199 50.5463C24.3599 50.3894 24.1999 50.5463 23.9599 50.5463L23.6399 50.7033H23.3999V50.5463C23.5599 50.3894 23.5599 49.997 23.3999 49.997C23.2399 49.8401 23.0799 49.8401 22.8399 49.997L22.6799 50.154H22.5199V50.0755C22.6799 49.9186 22.6799 49.7616 22.5199 49.5262C22.3599 49.3693 21.9599 49.3693 21.7999 49.5262H21.6399V49.3693L22.1999 48.82H22.3599C22.5199 48.9769 22.6799 48.9769 22.9199 48.82C22.9199 48.82 22.9199 48.9769 23.0799 48.9769C23.2399 49.1339 23.6399 49.1339 23.7999 48.9769H23.9599C23.9599 48.9769 24.1199 48.9769 24.1199 49.1339C23.9599 49.2908 23.9599 49.6832 24.1199 49.6832C24.2799 49.8401 24.6799 49.8401 24.8399 49.6832H24.9999V49.8401C24.9999 49.997 24.9999 50.154 25.1599 50.3894C25.3199 50.6248 25.4799 50.5463 25.7199 50.3894C25.8799 50.3894 26.0399 50.3894 26.0399 50.3894C26.0399 50.3894 26.0399 50.5463 26.0399 50.7033L25.3199 51.4095C24.8399 51.2525 24.6799 51.4095 24.6799 51.2525ZM26.4399 51.5664C26.2799 51.7233 26.2799 51.7233 26.1199 51.5664L25.9599 51.4095L26.2799 51.0956L26.4399 51.2525C26.5999 51.4095 26.5999 51.5664 26.4399 51.5664ZM30.4399 49.8401C30.2799 49.997 30.2799 49.997 30.1199 49.8401L28.1999 47.9568C28.0399 47.7999 27.6399 47.7999 27.4799 47.9568C27.3199 48.1138 27.3199 48.5061 27.4799 48.6631L29.2399 50.3894C29.2399 50.3894 29.3999 50.5463 29.2399 50.7033C29.2399 50.7033 29.0799 50.7033 28.9199 50.7033L26.9999 48.82C26.8399 48.6631 26.4399 48.6631 26.2799 48.82C26.1199 48.9769 26.1199 49.3693 26.2799 49.5262L27.8799 51.0956C28.0399 51.2525 27.8799 51.4095 27.8799 51.4095C27.8799 51.4095 27.7199 51.4095 27.5599 51.4095L26.5199 50.2324C26.5199 50.0755 26.3599 49.9186 26.1999 49.6832C26.0399 49.5262 25.6399 49.3693 25.4799 49.3693C25.4799 49.2123 25.3199 49.0554 25.1599 48.82C24.9999 48.6631 24.5999 48.5061 24.2799 48.5061C24.2799 48.3492 24.2799 48.1922 24.1199 48.1922C23.7999 47.8784 23.0799 47.8784 22.6799 48.1922C22.6799 48.1922 22.6799 48.0353 22.5199 48.0353C22.1999 47.7214 21.4799 47.7214 20.9199 48.0353L20.5999 48.3492L20.2799 48.1922C21.1599 46.6229 21.7199 45.0535 21.8799 44.3473C22.1999 44.3473 23.6399 44.5042 23.6399 44.5042C23.4799 44.6612 23.4799 45.3674 23.4799 45.3674C23.4799 45.3674 22.9199 46.2305 22.7599 46.3875C22.7599 46.7013 22.7599 46.9368 23.0799 47.2506C23.2399 47.4076 23.6399 47.5645 23.9599 47.5645C24.2799 47.5645 24.5199 47.5645 24.8399 47.2506C25.5599 46.9368 25.7199 46.3875 25.8799 46.0736H26.4399L30.3599 49.9186C30.4399 49.6832 30.4399 49.8401 30.4399 49.8401ZM30.4399 48.2707L27.0799 44.975C27.0799 44.975 26.9199 44.8181 26.7599 44.8181C26.4399 44.8181 25.5599 44.8181 25.5599 44.8181C25.3999 44.8181 25.2399 44.975 25.2399 45.3674C25.2399 45.3674 25.2399 45.9167 24.6799 46.2305C24.3599 46.3875 23.9599 46.3875 23.9599 46.3875C24.1199 46.2305 24.5199 45.6812 24.5199 45.5243C24.6799 45.3674 24.6799 44.975 24.6799 44.6612C25.8799 43.798 26.4399 43.798 26.4399 43.798C26.5999 43.798 27.1599 44.1119 27.4799 44.1119C27.7999 44.2688 28.0399 44.4258 28.1999 44.4258C28.3599 44.4258 28.9199 44.4258 29.2399 44.4258C29.3999 45.132 29.7999 46.7013 30.6799 48.2707H30.4399ZM31.7199 48.1138C30.6799 46.5444 30.2799 44.8181 30.1199 44.1119L31.1599 43.5626L32.7599 47.7214C32.4399 47.9568 32.0399 48.1138 31.7199 48.1138Z" fill="#E53045"/>
<path d="M17.08 12.0966C17.4 12.0966 18.28 11.5473 19 11.5473V21.042C19 21.199 19 21.3559 19.16 21.3559C19.32 21.3559 19.48 21.5128 19.48 21.3559L23.16 19.9435L26.84 21.3559H27H27.16C27.32 21.3559 27.32 21.199 27.32 21.042V11.6258C29.8 11.9397 31.4 13.1952 31.88 13.509C31.88 13.509 32.04 13.666 32.2 13.666C32.36 13.666 32.36 13.666 32.52 13.509C32.52 13.509 33.4 12.4889 33.4 10.9196C33.4 9.35019 32.52 8.48703 32.52 8.33009C32.52 8.17316 32.36 8.17316 32.2 8.17316C32.04 8.17316 32.04 8.17316 31.88 8.33009C31.16 9.03631 28.84 10.3703 25.32 10.3703H20.2C19.48 10.3703 17.4 9.66406 17.16 9.66406C16.6 9.66406 15.96 9.97794 15.96 10.8411C15.96 11.7827 16.52 12.0966 17.08 12.0966ZM19.88 17.2755L26.6 14.5291V15.0784L19.88 17.8248V17.2755ZM26.6 13.509L19.88 16.2554V12.2535C20.6 12.9598 21.64 13.4306 23.24 13.4306C24.84 13.4306 25.88 12.7243 26.6 12.2535V13.509ZM23.4 19.2373C23.24 19.2373 23.24 19.2373 23.08 19.2373L19.88 20.4143V18.8449L26.6 16.0985V20.4143L23.4 19.2373ZM32.44 9.35019C32.6 9.66406 32.76 10.2133 32.76 10.9196C32.76 11.6258 32.6 12.0966 32.44 12.4889C31.72 11.9397 30.52 11.3119 29.08 10.9196C30.44 10.5272 31.72 9.89947 32.44 9.35019ZM26.44 11.3904C25.88 11.9397 25 12.8028 23.4 12.8028C21.8 12.8028 20.76 11.9397 20.2 11.3904C20.2 11.3904 25.88 11.3904 26.44 11.3904ZM17.08 10.5272C17.24 10.6842 17.4 10.6842 17.8 10.8411C17.48 10.998 17.24 10.998 17.08 11.155C16.92 11.155 16.92 10.998 16.92 10.8411C16.84 10.9196 16.84 10.7626 17.08 10.5272Z" fill="#E53045"/>
<path d="M13.319 25.2784V7.2306C21.639 4.95501 28.679 3.93491 35.239 3.77797V25.2784H36.119V3.62104C36.439 3.62104 36.679 3.62104 36.999 3.62104C37.159 3.62104 37.559 3.62104 37.719 3.62104V25.2784H38.5991V3.62104C45.1591 3.77797 52.0391 4.79807 60.5191 7.07367V25.1215H61.3991V6.91673C61.3991 6.75979 61.2391 6.60285 61.0791 6.60285C51.5591 4.01338 44.2791 2.99329 37.079 2.99329C29.879 2.99329 22.279 4.17032 12.919 6.60285C12.759 6.60285 12.599 6.75979 12.599 6.91673V25.2784C12.439 25.2784 13.319 25.2784 13.319 25.2784Z" fill="#E53045"/>
<path d="M60.5199 38.776C60.5199 50.7033 50.9199 59.5702 38.5999 60.2765V38.776H37.7199V60.4334C37.5599 60.4334 37.1599 60.4334 36.9999 60.4334C36.6799 60.4334 36.4399 60.4334 36.1199 60.4334V38.776H35.2399V60.2765C22.9199 59.4133 13.3199 50.5463 13.3199 38.776H12.4399C12.5999 51.5664 23.2399 61.2966 36.9999 61.2966C50.5999 61.2966 61.1599 51.8018 61.3999 38.776H60.5199Z" fill="#E53045"/>
<path d="M69.3199 33.9109L73.3999 26.6133H66.5199V24.7301H63.7199V4.48512C63.7199 4.32819 63.5599 4.17125 63.3999 4.17125C54.2799 1.73872 45.4799 0.483215 36.9999 0.483215C28.5199 0.483215 19.5599 1.66025 10.5199 4.09278C10.3599 4.09278 10.1999 4.24972 10.1999 4.40666V24.6516H7.39994V26.5349H0.439941L4.51994 33.8325L0.439941 41.1301H10.3599C11.5599 53.842 22.8399 63.5721 36.9999 63.5721C51.1599 63.5721 62.2799 53.842 63.6399 41.2085H73.5599L69.3199 33.9109ZM11.0799 4.87747C19.8799 2.44494 28.7599 1.2679 36.9999 1.2679C45.2399 1.2679 53.9599 2.44494 62.7599 4.87747V24.8085H11.0799V4.87747ZM8.03994 25.5932H65.5599V38.2267H8.03994V25.5932ZM1.87994 40.3454L5.39994 33.9109L1.87994 27.4765H7.15994V39.0899H9.95994C9.95994 39.4037 9.95994 39.7961 9.95994 40.11H1.87994V40.3454ZM36.9999 62.709C22.6799 62.709 11.3999 52.508 11.0799 39.1683H62.8399C62.4399 52.4296 51.3199 62.709 36.9999 62.709ZM63.6399 39.0899H66.4399V27.555H71.7199L68.1999 33.9894L71.7199 40.4238H63.4799C63.6399 40.0315 63.6399 39.6392 63.6399 39.0899Z" fill="#E53045"/>
<path d="M45.3198 28.0258H50.7598V29.909H50.0398C49.8798 29.5951 49.7198 29.2028 49.7198 28.732H47.0798V31.4784H49.5598V32.3416H47.0798V35.3234H49.8798C49.8798 34.7741 50.0398 34.4602 50.1998 34.1463H50.9198V36.1865H45.0798V35.4803C45.2398 35.3234 45.6398 35.1664 45.9598 35.1664V28.8889C45.7998 28.8889 45.2398 28.732 45.0798 28.5751L45.3198 28.0258ZM36.4398 28.0258H39.0798V28.732C38.9198 28.8889 38.5198 29.0459 38.1998 29.0459V31.6353H39.3998L41.3198 28.8889C41.1598 28.8889 40.5998 29.0459 40.4398 29.0459V28.1827H43.2398V28.8889C42.9198 29.0459 42.3598 29.2028 42.3598 29.2028L40.2798 32.3416L42.3598 35.6372H43.2398V36.3435C43.0798 36.5004 42.6798 36.5004 42.3598 36.5004C41.6398 36.5004 41.4798 36.1865 41.1598 35.6372L39.3998 32.6554H38.1998V35.6372C38.3598 35.4803 38.9198 35.4803 39.0798 35.4803V36.3435H36.2798V35.6372C36.4398 35.4803 36.8398 35.3234 37.1598 35.3234V28.8889C36.9998 29.0459 36.4398 29.0459 36.2798 29.0459L36.4398 28.0258ZM32.5998 28.8889V35.3234C32.9198 35.1664 33.3198 35.1664 33.4798 35.1664V36.0296H30.6798V35.3234C30.8398 35.1664 31.2398 35.0095 31.5598 35.0095V28.5751C31.3998 28.732 30.8398 28.732 30.6798 28.732V27.8688H33.4798V28.5751C33.3198 28.732 32.9198 28.8889 32.5998 28.8889ZM23.7198 35.1664V28.732C23.5598 28.8889 23.0798 28.8889 22.8398 28.8889V28.0258H25.6398V28.732C25.4798 28.8889 25.0798 29.0459 24.7598 29.0459V35.4803H27.2398C27.2398 34.931 27.2398 34.6171 27.5598 34.0679H28.2798V36.3435H22.8398V35.6372C23.0798 35.3234 23.3998 35.3234 23.7198 35.1664Z" fill="#E53045"/>
<path d="M63.6398 23.3961H62.7598V24.1022H63.6398V23.3961Z" fill="#E53045"/>
<path d="M44.6 48.1135C45.086 48.1135 45.48 47.7271 45.48 47.2505C45.48 46.7738 45.086 46.3875 44.6 46.3875C44.114 46.3875 43.72 46.7738 43.72 47.2505C43.72 47.7271 44.114 48.1135 44.6 48.1135Z" fill="#E53045"/>
<path d="M49.3199 43.7977C49.8059 43.7977 50.1999 43.4113 50.1999 42.9347C50.1999 42.4581 49.8059 42.0717 49.3199 42.0717C48.8339 42.0717 48.4399 42.4581 48.4399 42.9347C48.4399 43.4113 48.8339 43.7977 49.3199 43.7977Z" fill="#E53045"/>
<path d="M51.8 47.2505C51.9767 47.2505 52.12 47.11 52.12 46.9367C52.12 46.7634 51.9767 46.6229 51.8 46.6229C51.6232 46.6229 51.48 46.7634 51.48 46.9367C51.48 47.11 51.6232 47.2505 51.8 47.2505Z" fill="#E53045"/>
<path d="M42.84 50.5463C43.0167 50.5463 43.16 50.4058 43.16 50.2324C43.16 50.0591 43.0167 49.9186 42.84 49.9186C42.6633 49.9186 42.52 50.0591 42.52 50.2324C42.52 50.4058 42.6633 50.5463 42.84 50.5463Z" fill="#E53045"/>
<path d="M48.9999 52.5864C49.1767 52.5864 49.3199 52.4459 49.3199 52.2726C49.3199 52.0993 49.1767 51.9587 48.9999 51.9587C48.8232 51.9587 48.6799 52.0993 48.6799 52.2726C48.6799 52.4459 48.8232 52.5864 48.9999 52.5864Z" fill="#E53045"/>
<path d="M45.6398 54.8613C46.2142 54.8613 46.6798 54.4048 46.6798 53.8416C46.6798 53.2784 46.2142 52.8219 45.6398 52.8219C45.0655 52.8219 44.5999 53.2784 44.5999 53.8416C44.5999 54.4048 45.0655 54.8613 45.6398 54.8613Z" fill="#E53045"/>
<path d="M53.0799 51.8016C53.4775 51.8016 53.7999 51.4855 53.7999 51.0955C53.7999 50.7055 53.4775 50.3894 53.0799 50.3894C52.6822 50.3894 52.3599 50.7055 52.3599 51.0955C52.3599 51.4855 52.6822 51.8016 53.0799 51.8016Z" fill="#E53045"/>
<path d="M48.6798 50.7033C47.6398 50.7033 46.7598 49.8401 46.7598 48.82C46.7598 47.7999 47.6398 46.9368 48.6798 46.9368C49.7198 46.9368 50.5998 47.7999 50.5998 48.82C50.5998 49.8401 49.7198 50.7033 48.6798 50.7033ZM48.6798 47.643C47.9598 47.643 47.4798 48.1923 47.4798 48.82C47.4798 49.4478 48.0398 49.9971 48.6798 49.9971C49.3998 49.9971 49.8798 49.4478 49.8798 48.82C49.8798 48.1923 49.3198 47.643 48.6798 47.643Z" fill="#E53045"/>
<path d="M47.4509 49.9163L45.3831 53.547L46.0116 53.8914L48.0795 50.2607L47.4509 49.9163Z" fill="#E53045"/>
<path d="M53.2398 51.8018L49.5598 49.5262L49.8798 48.9769L53.5598 51.0956L53.2398 51.8018Z" fill="#E53045"/>
<path d="M44.6357 47.11L44.4336 47.7872L46.967 48.5146L47.1691 47.8374L44.6357 47.11Z" fill="#E53045"/>
<path d="M49.1599 47.2499H48.4399L48.9999 42.621L49.7199 42.7779L49.1599 47.2499Z" fill="#E53045"/>
<path d="M51.7902 46.6452L49.7307 48.0001L50.1317 48.5865L52.1912 47.2317L51.7902 46.6452Z" fill="#E53045"/>
<path d="M48.8399 52.2719L48.6799 50.2324H49.3199L49.56 52.2719H48.8399Z" fill="#E53045"/>
<path d="M46.8037 49.102L42.6541 49.9566L42.802 50.6477L46.9517 49.793L46.8037 49.102Z" fill="#E53045"/>
</svg>
