<svg width="24" height="24" viewBox="0 0 24 24" fill="none" xmlns="http://www.w3.org/2000/svg">
<g id="icon/action/search_24px">
<path id="icon/action/search_24px_2" fill-rule="evenodd" clip-rule="evenodd" d="M15.1594 14.4716H15.948L20.1804 18.7316C20.5896 19.1416 20.5896 19.8116 20.1804 20.2216C19.7711 20.6316 19.1023 20.6316 18.693 20.2216L14.4506 15.9716V15.1816L14.1811 14.9016C12.7836 16.1016 10.8771 16.7216 8.85069 16.3816C6.07567 15.9116 3.85965 13.5916 3.52026 10.7916C3.00119 6.56157 6.55481 3.00157 10.7772 3.52157C13.5722 3.86157 15.8881 6.08157 16.3572 8.86157C16.6966 10.8916 16.0777 12.8016 14.8799 14.2016L15.1594 14.4716ZM5.46677 9.97157C5.46677 12.4616 7.47317 14.4716 9.9587 14.4716C12.4442 14.4716 14.4506 12.4616 14.4506 9.97157C14.4506 7.48157 12.4442 5.47157 9.9587 5.47157C7.47317 5.47157 5.46677 7.48157 5.46677 9.97157Z" fill="#63636E"/>
</g>
</svg>
